<svg width="20" height="20" viewBox="0 0 20 20" fill="none" xmlns="http://www.w3.org/2000/svg">
<g clip-path="url(#clip0)">
<path d="M7.70828 6.66672H1.45828C0.654144 6.66672 0 6.01257 0 5.20828V1.45828C0 0.654144 0.654144 0 1.45828 0H7.70828C8.51257 0 9.16672 0.654144 9.16672 1.45828V5.20828C9.16672 6.01257 8.51257 6.66672 7.70828 6.66672ZM1.45828 1.25C1.34338 1.25 1.25 1.34338 1.25 1.45828V5.20828C1.25 5.32333 1.34338 5.41672 1.45828 5.41672H7.70828C7.82333 5.41672 7.91672 5.32333 7.91672 5.20828V1.45828C7.91672 1.34338 7.82333 1.25 7.70828 1.25H1.45828Z" fill="#7C7C7C"/>
<path d="M7.70828 19.9987H1.45828C0.654144 19.9987 0 19.3446 0 18.5405V9.79047C0 8.98618 0.654144 8.33203 1.45828 8.33203H7.70828C8.51257 8.33203 9.16672 8.98618 9.16672 9.79047V18.5405C9.16672 19.3446 8.51257 19.9987 7.70828 19.9987ZM1.45828 9.58203C1.34338 9.58203 1.25 9.67541 1.25 9.79047V18.5405C1.25 18.6554 1.34338 18.7487 1.45828 18.7487H7.70828C7.82333 18.7487 7.91672 18.6554 7.91672 18.5405V9.79047C7.91672 9.67541 7.82333 9.58203 7.70828 9.58203H1.45828Z" fill="#7C7C7C"/>
<path d="M18.5424 19.9987H12.2924C11.4881 19.9987 10.834 19.3446 10.834 18.5405V14.7905C10.834 13.9862 11.4881 13.332 12.2924 13.332H18.5424C19.3466 13.332 20.0007 13.9862 20.0007 14.7905V18.5405C20.0007 19.3446 19.3466 19.9987 18.5424 19.9987ZM12.2924 14.582C12.1774 14.582 12.084 14.6754 12.084 14.7905V18.5405C12.084 18.6554 12.1774 18.7487 12.2924 18.7487H18.5424C18.6573 18.7487 18.7507 18.6554 18.7507 18.5405V14.7905C18.7507 14.6754 18.6573 14.582 18.5424 14.582H12.2924Z" fill="#7C7C7C"/>
<path d="M18.5414 11.6667H12.2914C11.4872 11.6667 10.833 11.0126 10.833 10.2083V1.45828C10.833 0.654144 11.4872 0 12.2914 0H18.5414C19.3456 0 19.9997 0.654144 19.9997 1.45828V10.2083C19.9997 11.0126 19.3456 11.6667 18.5414 11.6667ZM12.2914 1.25C12.1764 1.25 12.083 1.34338 12.083 1.45828V10.2083C12.083 10.3233 12.1764 10.4167 12.2914 10.4167H18.5414C18.6563 10.4167 18.7497 10.3233 18.7497 10.2083V1.45828C18.7497 1.34338 18.6563 1.25 18.5414 1.25H12.2914Z" fill="#7C7C7C"/>
</g>
<defs>
<clipPath id="clip0">
<rect width="20" height="20" fill="white"/>
</clipPath>
</defs>
</svg>
