<svg width="18" height="23" viewBox="0 0 18 23" fill="none" xmlns="http://www.w3.org/2000/svg">
<path d="M10.8711 23V22.9323H10.9705V22.4654V21.9453H16.3121H16.88V21.8901H17.4475V11.1555C17.4475 9.33084 16.1271 7.81233 14.3931 7.49851C15.7392 6.87393 16.6747 5.51412 16.6747 3.93274C16.6747 1.76078 14.914 0 12.7417 0C10.5698 0 8.809 1.76078 8.809 3.93274C8.809 5.51438 9.74459 6.87419 11.0909 7.49851C9.35563 7.81259 8.03415 9.3311 8.03415 11.1555V12.8174C7.89948 12.7962 7.7625 12.7821 7.62169 12.7821C7.37227 12.7821 7.13204 12.8189 6.90332 12.8836C6.56931 11.7893 5.54837 10.9874 4.34879 10.9874H2.67081C1.20188 10.9874 0 12.1892 0 13.6582V21.8819H3.00866V21.9453H4.27417V22.205H4.36514V23H10.8711ZM9.94418 3.93274C9.94418 2.39021 11.1992 1.13518 12.7417 1.13518C14.2843 1.13518 15.5396 2.39021 15.5396 3.93274C15.5396 5.47528 14.2845 6.73031 12.742 6.73031C11.1995 6.73031 9.94418 5.47553 9.94418 3.93274ZM9.16933 11.1555C9.16933 9.73053 10.3288 8.57108 11.7538 8.57108H13.7313C15.1547 8.57108 16.3124 9.73053 16.3124 11.1555V20.8101H10.9705V20.0195C10.9705 18.8942 10.2531 17.9006 9.23322 17.5127C9.85857 17.0297 10.2631 16.2745 10.2631 15.4233C10.2631 14.5434 9.83097 13.766 9.16933 13.2861V11.1555ZM7.62169 13.9173C8.45224 13.9173 9.12768 14.593 9.12768 15.4233C9.12768 16.2538 8.45199 16.9293 7.62169 16.9293C6.79139 16.9293 6.1157 16.2536 6.1157 15.4233C6.1157 14.593 6.79139 13.9173 7.62169 13.9173ZM6.55704 18.5252C6.62681 18.504 6.70118 18.4889 6.78449 18.4792L6.79267 18.4785C6.84863 18.4736 6.90204 18.471 6.95801 18.471H8.2869C8.33546 18.471 8.38401 18.4728 8.43103 18.4767C8.44637 18.479 8.46451 18.4815 8.48904 18.4851L8.51792 18.4902C9.26874 18.6021 9.83531 19.2594 9.83531 20.0195V21.8648H5.4096V20.0195C5.4096 19.3282 5.87599 18.7154 6.55704 18.5252ZM4.27442 20.0195V20.7468H1.13543V13.6582C1.13543 12.8115 1.82441 12.1225 2.67107 12.1225H4.34904C5.12542 12.1225 5.76763 12.7024 5.86909 13.4514C5.32527 13.9352 4.98078 14.6382 4.98078 15.4233C4.98078 16.216 5.33166 16.9252 5.88468 17.4092V17.5638C4.92123 17.9868 4.27442 18.9479 4.27442 20.0195Z" fill="#7C7C7C"/>
<path d="M3.50976 10.813C5.35129 10.813 6.84399 9.3203 6.84399 7.47876C6.84399 5.63723 5.35129 4.14453 3.50976 4.14453C1.66823 4.14453 0.175781 5.63749 0.175781 7.47876C0.175781 9.3203 1.66848 10.813 3.50976 10.813ZM3.50976 5.27996C4.72237 5.27996 5.70881 6.26641 5.70881 7.47902C5.70881 8.69163 4.72237 9.67808 3.50976 9.67808C2.29715 9.67808 1.3107 8.69163 1.3107 7.47902C1.3107 6.26641 2.2974 5.27996 3.50976 5.27996Z" fill="#7C7C7C"/>
</svg>
