<svg width="23" height="23" viewBox="0 0 23 23" fill="none" xmlns="http://www.w3.org/2000/svg">
<path d="M20.1681 12.1289C19.7967 12.1289 19.4943 11.8267 19.4943 11.4551V10.7812C19.8665 10.7812 20.1681 10.4796 20.1681 10.1074V7.41211C20.1681 7.03992 19.8665 6.73828 19.4943 6.73828H17.4725C17.4721 5.95706 17.4714 4.77435 17.4707 4.76505C17.4728 4.5708 17.4162 4.38111 17.2754 4.24038L13.2325 0.197411C13.1112 0.0759811 12.9513 0.00842285 12.7867 0.000877378C12.7771 0.000350952 1.52539 0 1.52539 0C1.15321 0 0.851562 0.301643 0.851562 0.673828V18.6426C0.851562 19.0148 1.15321 19.3164 1.52539 19.3164H11.4084V20.9785C11.4084 22.0931 12.3152 23 13.4299 23H20.1681C21.2828 23 22.1896 22.0931 22.1896 20.9785V14.1504C22.1896 13.0358 21.2828 12.1289 20.1681 12.1289ZM18.8205 9.31023H14.7775V8.08594H18.8205V9.31023ZM13.4299 2.30067L15.1723 4.04297H13.4299V2.30067ZM2.19922 17.9688V1.34766H12.0822V4.7168C12.0822 5.08898 12.384 5.39062 12.756 5.39062H16.1252V6.73828H14.1037C13.7317 6.73828 13.4299 7.03992 13.4299 7.41211V10.1074C13.4299 10.4796 13.7317 10.7812 14.1037 10.7812V11.4551C14.1037 11.8267 13.8015 12.1289 13.4299 12.1289C12.3152 12.1289 11.4084 13.0358 11.4084 14.1504V17.9688H2.19922ZM20.842 20.9785C20.842 21.35 20.5396 21.6523 20.1681 21.6523H13.4299C13.0584 21.6523 12.756 21.35 12.756 20.9785V14.1504C12.756 13.7789 13.0584 13.4766 13.4299 13.4766C14.5445 13.4766 15.4513 12.5697 15.4513 11.4551V10.7812H18.1467V11.4551C18.1467 12.5697 19.0535 13.4766 20.1681 13.4766C20.5398 13.4766 20.842 13.7789 20.842 14.1504V20.9785Z" fill="#7C7C7C"/>
</svg>
