<svg width="23" height="23" viewBox="0 0 23 23" fill="none" xmlns="http://www.w3.org/2000/svg">
<path d="M3.55078 5.97145V9.34375C3.55078 9.71593 3.85242 10.0176 4.22461 10.0176C4.59679 10.0176 4.89844 9.71593 4.89844 9.34375V7.59794L6.46983 9.16933L5.54612 10.0757C5.28045 10.3362 5.27641 10.763 5.53717 11.0285C5.66913 11.1631 5.84338 11.2305 6.01815 11.2305C6.18836 11.2305 6.35893 11.1662 6.49001 11.0376L7.42284 10.1223L8.33356 11.0331C8.46516 11.1647 8.63766 11.2305 8.80998 11.2305C8.98247 11.2305 9.15496 11.1647 9.28639 11.0331C9.54961 10.77 9.54961 10.3433 9.28639 10.0802L8.3848 9.17845L9.23357 8.34564C9.49925 8.08506 9.50328 7.65848 9.2427 7.39281C8.98212 7.12714 8.55536 7.1231 8.28969 7.38368L7.43179 8.22544L5.94463 6.73828H6.02148C7.13611 6.73828 8.04297 5.83142 8.04297 4.7168C8.04297 3.60217 7.13611 2.69531 6.02148 2.69531H4.22461C3.85242 2.69531 3.55078 2.99696 3.55078 3.36914V5.97145ZM6.69531 4.7168C6.69531 5.08828 6.39297 5.39062 6.02148 5.39062H4.89844V4.04297H6.02148C6.39297 4.04297 6.69531 4.34531 6.69531 4.7168Z" fill="#1FC0F3"/>
<path d="M20.1681 12.1289C19.7967 12.1289 19.4943 11.8267 19.4943 11.4551V10.7812C19.8665 10.7812 20.1681 10.4796 20.1681 10.1074V7.41211C20.1681 7.03992 19.8665 6.73828 19.4943 6.73828H17.4725C17.4721 5.95706 17.4714 4.77435 17.4707 4.76505C17.4728 4.5708 17.4162 4.38111 17.2754 4.24038L13.2325 0.197411C13.1112 0.0759811 12.9513 0.00842285 12.7867 0.000877378C12.7771 0.000350952 1.52539 0 1.52539 0C1.15321 0 0.851562 0.301643 0.851562 0.673828V18.6426C0.851562 19.0148 1.15321 19.3164 1.52539 19.3164H11.4084V20.9785C11.4084 22.0931 12.3152 23 13.4299 23H20.1681C21.2828 23 22.1896 22.0931 22.1896 20.9785V14.1504C22.1896 13.0358 21.2828 12.1289 20.1681 12.1289ZM18.8205 9.31023H14.7775V8.08594H18.8205V9.31023ZM13.4299 2.30067L15.1723 4.04297H13.4299V2.30067ZM2.19922 17.9688V1.34766H12.0822V4.7168C12.0822 5.08898 12.384 5.39062 12.756 5.39062H16.1252V6.73828H14.1037C13.7317 6.73828 13.4299 7.03992 13.4299 7.41211V10.1074C13.4299 10.4796 13.7317 10.7812 14.1037 10.7812V11.4551C14.1037 11.8267 13.8015 12.1289 13.4299 12.1289C12.3152 12.1289 11.4084 13.0358 11.4084 14.1504V17.9688H2.19922ZM20.842 20.9785C20.842 21.35 20.5396 21.6523 20.1681 21.6523H13.4299C13.0584 21.6523 12.756 21.35 12.756 20.9785V14.1504C12.756 13.7789 13.0584 13.4766 13.4299 13.4766C14.5445 13.4766 15.4513 12.5697 15.4513 11.4551V10.7812H18.1467V11.4551C18.1467 12.5697 19.0535 13.4766 20.1681 13.4766C20.5398 13.4766 20.842 13.7789 20.842 14.1504V20.9785Z" fill="#1FC0F3"/>
<path d="M18.5098 16.8527H17.4766V15.8574C17.4766 15.4852 17.1749 15.1836 16.8027 15.1836C16.4307 15.1836 16.1289 15.4852 16.1289 15.8574V16.8527H15.0957C14.7235 16.8527 14.4219 17.1544 14.4219 17.5266C14.4219 17.8987 14.7235 18.2004 15.0957 18.2004H16.1289V19.2715C16.1289 19.6437 16.4307 19.9453 16.8027 19.9453C17.1749 19.9453 17.4766 19.6437 17.4766 19.2715V18.2004H18.5098C18.882 18.2004 19.1836 17.8987 19.1836 17.5266C19.1836 17.1544 18.882 16.8527 18.5098 16.8527Z" fill="#1FC0F3"/>
<path d="M9.39063 12.5781H4.22461C3.85242 12.5781 3.55078 12.8799 3.55078 13.252C3.55078 13.6241 3.85242 13.9258 4.22461 13.9258H9.39063C9.76281 13.9258 10.0645 13.6241 10.0645 13.252C10.0645 12.8799 9.76281 12.5781 9.39063 12.5781Z" fill="#1FC0F3"/>
<path d="M7.59375 15.2734H4.22461C3.85242 15.2734 3.55078 15.5753 3.55078 15.9473C3.55078 16.3195 3.85242 16.6211 4.22461 16.6211H7.59375C7.96594 16.6211 8.26758 16.3195 8.26758 15.9473C8.26758 15.5753 7.96594 15.2734 7.59375 15.2734Z" fill="#1FC0F3"/>
</svg>
