<svg width="20" height="20" viewBox="0 0 20 20" fill="none" xmlns="http://www.w3.org/2000/svg">
<path d="M16.597 12.0092C16.167 11.5616 15.6485 11.3222 15.0989 11.3222C14.5537 11.3222 14.0307 11.5571 13.5831 12.0048L12.1825 13.4009C12.0673 13.3389 11.952 13.2813 11.8412 13.2236C11.6817 13.1439 11.531 13.0685 11.4024 12.9887C10.0905 12.1555 8.89825 11.0696 7.75474 9.66459C7.20072 8.9643 6.82842 8.37482 6.55805 7.77647C6.92149 7.44406 7.25834 7.09835 7.58632 6.76593C7.71042 6.64183 7.83452 6.5133 7.95862 6.3892C8.88939 5.45844 8.88939 4.25288 7.95862 3.32212L6.74864 2.11213C6.61124 1.97473 6.46941 1.8329 6.33644 1.69107C6.07051 1.41627 5.79128 1.13261 5.50319 0.866682C5.07327 0.441191 4.55913 0.215149 4.0184 0.215149C3.47768 0.215149 2.95468 0.441191 2.51146 0.866682C2.50703 0.871114 2.50703 0.871114 2.50259 0.875546L0.995649 2.39579C0.428328 2.96311 0.104778 3.65453 0.0338628 4.45676C-0.0725098 5.75096 0.308659 6.95652 0.601184 7.74545C1.3192 9.68232 2.39179 11.4774 3.99181 13.4009C5.93311 15.719 8.26888 17.5495 10.9371 18.8392C11.9565 19.3223 13.3171 19.8941 14.8374 19.9916C14.9305 19.996 15.028 20.0005 15.1166 20.0005C16.1405 20.0005 17.0003 19.6326 17.674 18.9013C17.6784 18.8924 17.6873 18.888 17.6917 18.8791C17.9222 18.5999 18.1881 18.3473 18.4674 18.0769C18.6579 17.8952 18.853 17.7046 19.0435 17.5051C19.4823 17.0486 19.7128 16.5168 19.7128 15.9716C19.7128 15.422 19.4779 14.8946 19.0302 14.4514L16.597 12.0092ZM18.1837 16.6763C18.1793 16.6763 18.1793 16.6808 18.1837 16.6763C18.0108 16.8625 17.8336 17.0309 17.643 17.2171C17.3549 17.4918 17.0624 17.7799 16.7876 18.1035C16.3399 18.5822 15.8125 18.8082 15.121 18.8082C15.0546 18.8082 14.9837 18.8082 14.9172 18.8038C13.6008 18.7196 12.3775 18.2054 11.4601 17.7666C8.95144 16.5522 6.74864 14.8281 4.91814 12.643C3.40676 10.8214 2.39622 9.13716 1.72696 7.32882C1.31477 6.22521 1.16407 5.36536 1.23056 4.55427C1.27488 4.0357 1.47433 3.60578 1.8422 3.23791L3.35358 1.72653C3.57075 1.52265 3.80123 1.41184 4.02727 1.41184C4.3065 1.41184 4.53254 1.58027 4.67437 1.7221C4.6788 1.72653 4.68323 1.73096 4.68767 1.73539C4.95803 1.98803 5.2151 2.24953 5.48546 2.52876C5.62286 2.67059 5.76469 2.81242 5.90652 2.95868L7.11651 4.16867C7.58632 4.63848 7.58632 5.07284 7.11651 5.54265C6.98797 5.67118 6.86387 5.79971 6.73534 5.92382C6.36304 6.30499 6.00846 6.65956 5.62286 7.00527C5.61399 7.01414 5.60513 7.01857 5.6007 7.02743C5.21953 7.4086 5.29044 7.78091 5.37022 8.03354C5.37466 8.04684 5.37909 8.06013 5.38352 8.07343C5.69821 8.83577 6.14143 9.55378 6.81512 10.4092L6.81955 10.4136C8.04284 11.9206 9.33261 13.0951 10.7553 13.9948C10.9371 14.1101 11.1232 14.2032 11.3005 14.2918C11.4601 14.3716 11.6108 14.4469 11.7393 14.5267C11.757 14.5356 11.7747 14.5489 11.7925 14.5577C11.9432 14.6331 12.085 14.6685 12.2313 14.6685C12.5991 14.6685 12.8296 14.4381 12.905 14.3627L14.4208 12.8469C14.5715 12.6962 14.8108 12.5145 15.09 12.5145C15.3648 12.5145 15.5909 12.6873 15.7283 12.838C15.7327 12.8425 15.7327 12.8425 15.7371 12.8469L18.1793 15.289C18.6358 15.7411 18.6358 16.2065 18.1837 16.6763Z" fill="white"/>
</svg>
